<svg width="30" height="30" viewBox="0 0 30 30" fill="none" xmlns="http://www.w3.org/2000/svg">
<path d="M4.6875 15C4.6875 7.95844 9.95074 2.14617 16.7578 1.28262C16.1822 1.20955 15.5955 1.17188 15 1.17188C7.36295 1.17188 1.17188 7.36295 1.17188 15C1.17188 22.6371 7.36295 28.8281 15 28.8281C15.5955 28.8281 16.1822 28.7904 16.7578 28.7174C9.95074 27.8538 4.6875 22.0416 4.6875 15Z" fill="#033B77" fill-opacity="0.15"/>
<path d="M15 30C10.9934 30 7.22654 28.4397 4.39336 25.6066C1.56029 22.7735 0 19.0066 0 15C0 10.9934 1.56029 7.22654 4.39336 4.39336C7.22654 1.56029 10.9934 0 15 0C19.0066 0 22.7735 1.56029 25.6066 4.39336C28.4397 7.22654 30 10.9934 30 15C30 19.0066 28.4397 22.7735 25.6066 25.6066C22.7735 28.4397 19.0066 30 15 30ZM15 2.34375C8.02131 2.34375 2.34375 8.02131 2.34375 15C2.34375 21.9787 8.02131 27.6562 15 27.6562C21.9787 27.6562 27.6562 21.9787 27.6562 15C27.6562 8.02131 21.9787 2.34375 15 2.34375Z" fill="#033B77"/>
<path d="M24.1406 13.8281C24.1405 13.8281 24.1403 13.8281 24.1402 13.8281L21.3379 13.8291C21.5416 12.174 22.1951 10.6174 23.23 9.35684C23.6406 8.85656 23.568 8.11816 23.0678 7.70754C22.5676 7.29686 21.8291 7.36945 21.4185 7.86973C20.0412 9.54744 19.1954 11.6298 18.9804 13.8299L16.0547 13.8308V5.85938C16.0547 5.21215 15.53 4.6875 14.8828 4.6875C14.2356 4.6875 13.7109 5.21215 13.7109 5.85938V13.8316L10.9612 13.8326C10.7467 11.6315 9.90076 9.54809 8.52293 7.86973C8.11225 7.36951 7.37385 7.2968 6.87363 7.70754C6.37342 8.11816 6.30082 8.85662 6.71145 9.35684C7.74715 10.6184 8.40094 12.1766 8.60408 13.8333L5.91756 13.8342C5.27033 13.8345 4.74586 14.3593 4.74609 15.0065C4.74633 15.6536 5.27092 16.178 5.91797 16.178H5.91838L8.58949 16.1771C8.36812 17.8245 7.7059 19.379 6.67143 20.6453C6.26197 21.1465 6.33627 21.8848 6.83754 22.2942C7.05521 22.4721 7.31748 22.5586 7.57828 22.5586C7.91795 22.5586 8.25486 22.4116 8.48648 22.1281C9.86109 20.4455 10.7158 18.3663 10.9499 16.1763L13.7109 16.1754V24.1406C13.7109 24.7879 14.2356 25.3125 14.8828 25.3125C15.53 25.3125 16.0547 24.7879 16.0547 24.1406V16.1746L18.9913 16.1736C19.225 18.3646 20.0797 20.4448 21.4549 22.1281C21.6866 22.4116 22.0234 22.5586 22.3631 22.5586C22.6238 22.5586 22.8862 22.472 23.1039 22.2942C23.6051 21.8848 23.6794 21.1465 23.27 20.6453C22.2346 19.3779 21.5721 17.8218 21.3513 16.1728L24.141 16.1719C24.7883 16.1716 25.3127 15.6468 25.3125 14.9996C25.3123 14.3525 24.7877 13.8281 24.1406 13.8281Z" fill="#E00015"/>
</svg>
