<svg width="30" height="30" viewBox="0 0 30 30" fill="none" xmlns="http://www.w3.org/2000/svg">
<g clip-path="url(#clip0)">
<path d="M16.8163 6.44533C16.3266 6.81318 15.7181 7.0312 15.0585 7.0312C13.4405 7.0312 12.1288 5.71953 12.1288 4.10154C12.1288 2.48354 13.4405 1.17188 15.0585 1.17188C15.7181 1.17188 16.3266 1.38996 16.8163 1.75775C16.1047 2.29224 15.6444 3.14307 15.6444 4.10154C15.6444 5.06001 16.1047 5.91078 16.8163 6.44533ZM4.68747 4.10154C4.68747 3.14313 5.14778 2.2923 5.85934 1.75775C5.36967 1.38996 4.76112 1.17188 4.10154 1.17188C2.48354 1.17188 1.17188 2.48354 1.17188 4.10154C1.17188 5.71953 2.48354 7.0312 4.10154 7.0312C4.76112 7.0312 5.36967 6.81312 5.85934 6.44533C5.14778 5.91078 4.68747 5.05995 4.68747 4.10154ZM26.4842 4.10154C26.4842 3.14313 26.9445 2.2923 27.656 1.75775C27.1664 1.3899 26.5578 1.17188 25.8982 1.17188C24.2802 1.17188 22.9686 2.48354 22.9686 4.10154C22.9686 5.71953 24.2802 7.0312 25.8982 7.0312C26.5578 7.0312 27.1664 6.81312 27.656 6.44533C26.9445 5.91078 26.4842 5.05995 26.4842 4.10154ZM15.6444 25.8982C15.6444 24.9398 16.1047 24.089 16.8163 23.5545C16.3266 23.1866 15.7181 22.9686 15.0585 22.9686C13.4405 22.9686 12.1288 24.2802 12.1288 25.8982C12.1288 27.5162 13.4405 28.8279 15.0585 28.8279C15.7181 28.8279 16.3266 28.6098 16.8163 28.242C16.1047 27.7075 15.6444 26.8567 15.6444 25.8982ZM4.68747 25.8982C4.68747 24.9398 5.14778 24.089 5.85934 23.5545C5.36967 23.1866 4.76112 22.9686 4.10154 22.9686C2.48354 22.9686 1.17188 24.2802 1.17188 25.8982C1.17188 27.5162 2.48354 28.8279 4.10154 28.8279C4.76112 28.8279 5.36967 28.6098 5.85934 28.242C5.14778 27.7075 4.68747 26.8567 4.68747 25.8982Z" fill="#033B77" fill-opacity="0.15"/>
<path d="M27.0115 11.3671V11.4843C27.0115 14.069 24.9087 16.1717 22.324 16.1717H16.2889V18.5741C16.2889 19.2213 15.7643 19.7459 15.1171 19.7459C14.4698 19.7459 13.9452 19.2213 13.9452 18.5741V16.1717H5.2734V18.5741C5.2734 19.2213 4.74875 19.7459 4.10153 19.7459C3.45431 19.7459 2.92966 19.2213 2.92966 18.5741V11.3671C2.92966 10.7199 3.45431 10.1952 4.10153 10.1952C4.74875 10.1952 5.2734 10.7199 5.2734 11.3671V13.828H13.9452V11.3671C13.9452 10.7199 14.4698 10.1952 15.1171 10.1952C15.7643 10.1952 16.2889 10.7199 16.2889 11.3671V13.828H22.324C23.6164 13.828 24.6678 12.7766 24.6678 11.4843V11.3671C24.6678 10.7199 25.1924 10.1952 25.8396 10.1952C26.4869 10.1952 27.0115 10.7199 27.0115 11.3671ZM0 4.10153C0 1.83995 1.83995 0 4.10153 0C6.36311 0 8.20306 1.83995 8.20306 4.10153C8.20306 6.36311 6.36311 8.20306 4.10153 8.20306C1.83995 8.20306 0 6.36311 0 4.10153ZM2.34373 4.10153C2.34373 5.07078 3.13228 5.85933 4.10153 5.85933C5.07078 5.85933 5.85933 5.07078 5.85933 4.10153C5.85933 3.13228 5.07078 2.34373 4.10153 2.34373C3.13228 2.34373 2.34373 3.13228 2.34373 4.10153ZM10.9569 4.10153C10.9569 1.83995 12.7969 0 15.0585 0C17.3201 0 19.16 1.83995 19.16 4.10153C19.16 6.36311 17.3201 8.20306 15.0585 8.20306C12.7969 8.20306 10.9569 6.36311 10.9569 4.10153ZM13.3007 4.10153C13.3007 5.07078 14.0892 5.85933 15.0585 5.85933C16.0277 5.85933 16.8163 5.07078 16.8163 4.10153C16.8163 3.13228 16.0277 2.34373 15.0585 2.34373C14.0892 2.34373 13.3007 3.13228 13.3007 4.10153ZM8.20306 25.8982C8.20306 28.1598 6.36311 29.9998 4.10153 29.9998C1.83995 29.9998 0 28.1598 0 25.8982C0 23.6367 1.83995 21.7967 4.10153 21.7967C6.36311 21.7967 8.20306 23.6367 8.20306 25.8982ZM5.85933 25.8982C5.85933 24.929 5.07078 24.1404 4.10153 24.1404C3.13228 24.1404 2.34373 24.929 2.34373 25.8982C2.34373 26.8675 3.13228 27.656 4.10153 27.656C5.07078 27.656 5.85933 26.8675 5.85933 25.8982ZM19.16 25.8982C19.16 28.1598 17.3201 29.9998 15.0585 29.9998C12.7969 29.9998 10.9569 28.1598 10.9569 25.8982C10.9569 23.6367 12.7969 21.7967 15.0585 21.7967C17.3201 21.7967 19.16 23.6367 19.16 25.8982ZM16.8163 25.8982C16.8163 24.929 16.0277 24.1404 15.0585 24.1404C14.0892 24.1404 13.3007 24.929 13.3007 25.8982C13.3007 26.8675 14.0892 27.656 15.0585 27.656C16.0277 27.656 16.8163 26.8675 16.8163 25.8982ZM29.9998 4.10153C29.9998 6.36311 28.1598 8.20306 25.8982 8.20306C23.6367 8.20306 21.7967 6.36311 21.7967 4.10153C21.7967 1.83995 23.6367 0 25.8982 0C28.1598 0 29.9998 1.83995 29.9998 4.10153ZM27.656 4.10153C27.656 3.13228 26.8675 2.34373 25.8982 2.34373C24.929 2.34373 24.1404 3.13228 24.1404 4.10153C24.1404 5.07078 24.929 5.85933 25.8982 5.85933C26.8675 5.85933 27.656 5.07078 27.656 4.10153Z" fill="#033B77"/>
<path d="M28.435 26.1255C29.3819 25.442 29.9999 24.3298 29.9999 23.0754C29.9999 21.0135 28.3224 19.3359 26.2605 19.3359C24.2516 19.3359 22.6172 20.9703 22.6172 22.9793V28.828C22.6172 29.4753 23.1418 29.9999 23.7891 29.9999C24.4363 29.9999 24.9609 29.4753 24.9609 28.828V26.8359H26.1599L27.4985 29.3746C27.7085 29.7727 28.1152 30.0001 28.5361 30.0001C28.7204 30.0001 28.9073 29.9565 29.0817 29.8647C29.6542 29.5628 29.8735 28.854 29.5717 28.2815L28.435 26.1255ZM24.961 22.9793C24.961 22.2627 25.544 21.6797 26.2606 21.6797C27.0302 21.6797 27.6563 22.3058 27.6563 23.0754C27.6563 23.8566 27.0207 24.4921 26.2395 24.4921H24.961V22.9793Z" fill="#E00015"/>
</g>
<defs>
<clipPath id="clip0">
<rect width="30" height="30" fill="white"/>
</clipPath>
</defs>
</svg>
