<svg width="30" height="30" viewBox="0 0 30 30" fill="none" xmlns="http://www.w3.org/2000/svg">
<path d="M10.5851 28.8011H7.01787C3.78811 28.8011 1.16992 26.1828 1.16992 22.9531V7.04668C1.16992 3.81692 3.78811 1.19873 7.01787 1.19873H10.5851C7.35536 1.19873 4.73717 3.81692 4.73717 7.04668V22.9531C4.73717 26.1828 7.35536 28.8011 10.5851 28.8011ZM22.1641 20.9157C22.1641 19.0259 23.1883 17.3763 24.7133 16.4962C24.3993 16.4356 24.0749 16.4035 23.743 16.4035C20.928 16.4035 18.6553 18.6855 18.6553 21.5005C18.6553 23.2041 20.7171 26.1552 22.2189 28.0616C22.9957 29.0477 24.4904 29.0477 25.2672 28.0616C25.4147 27.8743 25.5677 27.6767 25.7235 27.4715C24.2221 25.5649 22.1641 22.6177 22.1641 20.9157Z" fill="#033B77" fill-opacity="0.15"/>
<path d="M17.3099 29.9708H7.01754C3.14807 29.9708 0 26.8227 0 22.9533V7.04684C0 3.17737 3.14807 0.0292969 7.01754 0.0292969H22.924C26.7935 0.0292969 29.9415 3.17737 29.9415 7.04684V12.9533C29.9415 13.5992 29.4179 14.1229 28.7719 14.1229C28.126 14.1229 27.6023 13.5992 27.6023 12.9533V7.04684C27.6023 4.46719 25.5036 2.36848 22.924 2.36848H7.01754C4.43789 2.36848 2.33918 4.46719 2.33918 7.04684V22.9533C2.33918 25.5329 4.43789 27.6316 7.01754 27.6316H17.3099C17.9559 27.6316 18.4795 28.1553 18.4795 28.8012C18.4795 29.4472 17.9559 29.9708 17.3099 29.9708ZM15.8591 10.3272L19.482 6.70427C19.9388 6.24748 19.9387 5.50696 19.4819 5.05023C19.0253 4.59345 18.2846 4.59345 17.8279 5.05023L14.205 8.67316C13.9835 8.89468 13.6885 9.01444 13.3757 9.01573C13.0625 9.01515 12.7685 8.89234 12.5478 8.67L8.95883 5.05345C8.5038 4.59491 7.76322 4.5921 7.3048 5.04713C6.84632 5.50216 6.84345 6.24269 7.29848 6.70117L10.8875 10.3177C11.5494 10.9847 12.4315 11.3531 13.3713 11.3549H13.3782C14.3153 11.3549 15.1962 10.9901 15.8591 10.3272ZM6.73924 19.447L9.25146 16.8992C10.5956 15.536 10.5918 13.3218 9.24281 11.9633L6.73632 9.43912C6.28117 8.98082 5.5407 8.97819 5.08228 9.43327C4.62392 9.88842 4.62135 10.6289 5.07643 11.0873L7.58292 13.6115C8.03257 14.0643 8.03386 14.8025 7.58579 15.2568L5.07357 17.8046C4.62006 18.2645 4.6252 19.005 5.0852 19.4586C5.31304 19.6833 5.60977 19.7954 5.90637 19.7954C6.20848 19.7954 6.51041 19.6791 6.73924 19.447ZM26.1856 28.7854C28.7167 25.5725 30 23.1215 30 21.5006C30 18.0452 27.193 15.234 23.7427 15.234C20.2924 15.234 17.4854 18.0452 17.4854 21.5006C17.4854 23.1215 18.7687 25.5725 21.2998 28.7855C21.8933 29.5388 22.7837 29.9709 23.7427 29.9709C24.7017 29.9709 25.5921 29.5388 26.1856 28.7854ZM25.2668 28.0617H25.2674H25.2668ZM27.6608 21.5006C27.6608 22.2896 26.7905 24.2374 24.3481 27.338C24.1468 27.5935 23.8824 27.6316 23.7427 27.6316C23.603 27.6316 23.3387 27.5935 23.1373 27.338C20.6949 24.2374 19.8246 22.2896 19.8246 21.5006C19.8246 19.335 21.5822 17.5732 23.7427 17.5732C25.9032 17.5732 27.6608 19.335 27.6608 21.5006Z" fill="#033B77"/>
<path d="M7.07586 25.2923C6.7765 25.2923 6.4772 25.1781 6.24884 24.9497C5.79205 24.4929 5.79205 23.7524 6.24884 23.2957L23.2664 6.27813C23.7232 5.82135 24.4637 5.82135 24.9205 6.27813C25.3772 6.73492 25.3772 7.47544 24.9205 7.93217L7.90293 24.9497C7.67451 25.1781 7.37521 25.2923 7.07586 25.2923ZM22.2805 21.3742C22.2805 22.1816 22.9351 22.8361 23.7425 22.8361C24.5499 22.8361 25.2045 22.1816 25.2045 21.3742C25.2045 20.5667 24.5499 19.9122 23.7425 19.9122C22.9351 19.9122 22.2805 20.5667 22.2805 21.3742Z" fill="#E00015"/>
</svg>
