<svg width="30" height="30" viewBox="0 0 30 30" fill="none" xmlns="http://www.w3.org/2000/svg">
<g clip-path="url(#clip0)">
<path d="M9.02344 19.3359C9.02344 14.6942 12.3554 10.8313 16.7578 10.0069C16.1881 9.90018 15.6006 9.84375 15 9.84375C9.75762 9.84375 5.50781 14.0936 5.50781 19.3359C5.50781 24.5783 9.75762 28.8281 15 28.8281C15.6006 28.8281 16.1881 28.7717 16.7578 28.665C12.3554 27.8406 9.02344 23.9777 9.02344 19.3359Z" fill="#033B77" fill-opacity="0.15"/>
<path d="M15 30C9.11983 30 4.33594 25.2161 4.33594 19.3359C4.33594 13.4558 9.11983 8.67188 15 8.67188C20.8802 8.67188 25.6641 13.4558 25.6641 19.3359C25.6641 25.2162 20.8802 30 15 30ZM15 11.0156C10.4122 11.0156 6.67969 14.7481 6.67969 19.3359C6.67969 23.9238 10.4122 27.6562 15 27.6562C19.5878 27.6562 23.3203 23.9238 23.3203 19.3359C23.3203 14.7481 19.5878 11.0156 15 11.0156ZM18.2101 4.96582L21.2074 2.0526C21.4344 1.83193 21.5625 1.52883 21.5625 1.21225V1.17188C21.5625 0.524648 21.0379 0 20.3906 0C19.9791 0 19.617 0.212227 19.408 0.533145L16.5715 3.28998C16.5679 3.29344 16.5644 3.29689 16.5609 3.30041C16.0103 3.84938 15.2247 4.08908 14.4598 3.94184C14.0004 3.85336 13.5817 3.6307 13.2509 3.29994L10.4164 0.45123C10.2019 0.176543 9.86766 0 9.49219 0C8.84496 0 8.32032 0.524648 8.32032 1.17188V1.18389C8.32032 1.49367 8.44301 1.79086 8.66145 2.01047L11.5915 4.95516C12.2568 5.62049 13.0955 6.06598 14.0167 6.24334C14.3131 6.30041 14.6109 6.32836 14.9066 6.32836C16.1333 6.3283 17.3231 5.84707 18.2101 4.96582ZM23.1491 8.44957L29.653 2.00426C30.1127 1.54869 30.1161 0.806719 29.6605 0.346992C29.2049 -0.112676 28.463 -0.116074 28.0032 0.339492L21.4993 6.7848C21.0396 7.24037 21.0363 7.98234 21.4918 8.44207C21.721 8.67328 22.0226 8.78906 22.3243 8.78906C22.6224 8.78906 22.9207 8.67603 23.1491 8.44957ZM8.50817 8.44207C8.96373 7.98234 8.96039 7.24037 8.50067 6.7848L1.99676 0.339492C1.53692 -0.116074 0.795005 -0.112676 0.339497 0.346992C-0.116069 0.806719 -0.11273 1.54869 0.346997 2.00426L6.8509 8.44957C7.07942 8.67603 7.3776 8.78906 7.67573 8.78906C7.97743 8.78906 8.27907 8.67328 8.50817 8.44207Z" fill="#033B77"/>
<path d="M14.8535 14.0625C13.5342 14.0625 12.5844 14.7462 12.4805 14.8242L12.4812 14.8252C12.1966 15.0391 12.0117 15.3783 12.0117 15.7617C12.0117 16.4089 12.5364 16.9336 13.1836 16.9336C13.4474 16.9336 13.6901 16.8454 13.886 16.6982L13.8867 16.6992L13.8738 16.7087C13.878 16.7057 14.3091 16.4063 14.8535 16.4063C15.3866 16.4063 15.8203 16.8444 15.8203 17.3828C15.8203 17.772 15.1637 18.1149 14.72 18.2241C14.1833 18.3561 13.8119 18.8452 13.8287 19.3976C13.8455 19.9501 14.246 20.4156 14.7896 20.5148C15.2231 20.5939 15.8203 21.0727 15.8203 21.3412C15.8203 21.8797 15.3866 22.3178 14.8535 22.3178C14.3091 22.3178 13.8781 22.0184 13.8738 22.0153L13.8867 22.0248L13.8829 22.03C13.6876 21.8842 13.4461 21.7969 13.1836 21.7969C12.5364 21.7969 12.0117 22.3215 12.0117 22.9688C12.0117 23.4139 12.26 23.8011 12.6257 23.9995C12.9546 24.2107 13.7822 24.6615 14.8535 24.6615C16.6789 24.6615 18.1641 23.172 18.1641 21.3412C18.1641 20.6416 17.8649 19.9545 17.3153 19.3778C17.8263 18.8578 18.1641 18.1859 18.1641 17.3828C18.1641 15.552 16.679 14.0625 14.8535 14.0625Z" fill="#E00015"/>
</g>
<defs>
<clipPath id="clip0">
<rect width="30" height="30" fill="white"/>
</clipPath>
</defs>
</svg>
