<svg width="19" height="18" viewBox="0 0 19 18" fill="none" xmlns="http://www.w3.org/2000/svg">
<path d="M16.6579 11.5347C15.6092 11.5347 14.5821 11.3806 13.6077 11.0775C13.1326 10.9234 12.594 11.0421 12.2809 11.3419L10.3509 12.7137C8.13732 11.6021 6.72006 10.2691 5.55335 8.19918L6.97149 6.4257C7.32849 6.08887 7.45645 5.5979 7.30345 5.13728C6.98043 4.216 6.81581 3.24842 6.81581 2.26316C6.81581 1.56672 6.21366 1 5.4737 1H2.34211C1.60214 1 1 1.56672 1 2.26316C1 10.3886 8.02458 17 16.6579 17C17.3979 17 18 16.4333 18 15.7368V12.7979C18 12.1015 17.3979 11.5347 16.6579 11.5347Z" stroke="#fff" stroke-width="1.5"/>
</svg>
